name analog
datacolumns 19
datarows 23
range 0.376 0.387
endheader
time	ground_force_vx	ground_force_vy	ground_force_vz	ground_force_px	ground_force_py	ground_force_pz	l_ground_force_vx	l_ground_force_vy	l_ground_force_vz	l_ground_force_px	l_ground_force_py	l_ground_force_pz	ground_torque_x	ground_torque_y	ground_torque_z	l_ground_torque_x	l_ground_torque_y	l_ground_torque_z
0.376	-0.0	-0.0	-0.0	-0.0	-0.0	-0.0	-1.402326226234436	-2.84499740600586	-500.5423889160156	-0.0	-0.0	-0.0	-0.0	-0.0	-0.0	147098.046875	32971.34765625	-1546.150146484375
0.3765	-0.0	-0.0	-0.0	-0.0	-0.0	-0.0	-1.7211178541183472	-2.861750602722168	-499.799072265625	-0.0	-0.0	-0.0	-0.0	-0.0	-0.0	147366.6875	33232.828125	-1716.618408203125
0.377	-0.0	-0.0	-0.0	-0.0	-0.0	-0.0	-2.6967458724975586	-2.5553996562957764	-502.2663269042969	-0.0	-0.0	-0.0	-0.0	-0.0	-0.0	147580.3125	33396.44921875	-1926.7467041015625
0.3775	-0.0	-0.0	-0.0	-0.0	-0.0	-0.0	-3.690661668777466	-2.3374834060668945	-503.6632385253906	-0.0	-0.0	-0.0	-0.0	-0.0	-0.0	148194.015625	33834.25390625	-2295.03125
0.378	-0.0	-0.0	-0.0	-0.0	-0.0	-0.0	-4.695435047149658	-2.3436291217803955	-503.5011901855469	-0.0	-0.0	-0.0	-0.0	-0.0	-0.0	148208.015625	34252.12890625	-2446.00439453125
0.3785	-0.0	-0.0	-0.0	-0.0	-0.0	-0.0	-5.493681907653809	-2.2617411613464355	-503.3146362304688	-0.0	-0.0	-0.0	-0.0	-0.0	-0.0	148519.34375	34463.53125	-2743.066162109375
0.379	-0.0	-0.0	-0.0	-0.0	-0.0	-0.0	-6.038870334625244	-1.9365689754486084	-502.914306640625	-0.0	-0.0	-0.0	-0.0	-0.0	-0.0	148668.390625	34603.46484375	-2856.90625
0.3795	-0.0	-0.0	-0.0	-0.0	-0.0	-0.0	-5.915926456451416	-1.22986900806427	-502.7783203125	-0.0	-0.0	-0.0	-0.0	-0.0	-0.0	148634.078125	34882.8046875	-2888.616455078125
0.38	-0.0	-0.0	-0.0	-0.0	-0.0	-0.0	-6.168808460235596	-0.7813194990158081	-504.0942993164063	-0.0	-0.0	-0.0	-0.0	-0.0	-0.0	149102.796875	34878.21875	-2751.928955078125
0.3805	-0.0	-0.0	-0.0	-0.0	-0.0	-0.0	-4.865164756774902	-0.2649650573730469	-504.4966735839844	-0.0	-0.0	-0.0	-0.0	-0.0	-0.0	149368.984375	34995.14453125	-2543.2958984375
0.381	-0.0	-0.0	-0.0	-0.0	-0.0	-0.0	-4.19603443145752	-0.2649650573730469	-505.0338745117188	-0.0	-0.0	-0.0	-0.0	-0.0	-0.0	149353.421875	35027.62890625	-2300.828857421875
0.3815	-0.0	-0.0	-0.0	-0.0	-0.0	-0.0	-3.888784170150757	-0.7615544199943542	-506.15576171875	-0.0	-0.0	-0.0	-0.0	-0.0	-0.0	149768.59375	35371.87890625	-2085.79443359375
0.382	-0.0	-0.0	-0.0	-0.0	-0.0	-0.0	-4.121365547180176	-0.5777607560157776	-506.7790832519531	-0.0	-0.0	-0.0	-0.0	-0.0	-0.0	149849.71875	35364.046875	-2033.83203125
0.3825	-0.0	-0.0	-0.0	-0.0	-0.0	-0.0	-4.169406890869141	-0.6182518005371094	-508.015625	-0.0	-0.0	-0.0	-0.0	-0.0	-0.0	149979.15625	35626.09765625	-1874.4722900390625
0.383	-0.0	-0.0	-0.0	-0.0	-0.0	-0.0	-3.8725857734680176	-0.1842818856239318	-508.9337768554688	-0.0	-0.0	-0.0	-0.0	-0.0	-0.0	150170.78125	35569.67578125	-1787.7742919921875
0.3835	-0.0	-0.0	-0.0	-0.0	-0.0	-0.0	-3.733652114868164	-0.0	-508.71392822265625	-0.0	-0.0	-0.0	-0.0	-0.0	-0.0	149807.21875	35836.43359375	-1639.3934326171875
0.384	-0.0	-0.0	-0.0	-0.0	-0.0	-0.0	-3.5722906589508057	-0.1766433715820312	-509.508544921875	-0.0	-0.0	-0.0	-0.0	-0.0	-0.0	149738.90625	35940.48828125	-1423.7999267578125
0.3845	-0.0	-0.0	-0.0	-0.0	-0.0	-0.0	-3.621134042739868	-0.1284506767988205	-508.6182556152344	-0.0	-0.0	-0.0	-0.0	-0.0	-0.0	149831.671875	36022.16796875	-1350.9676513671875
0.385	-0.0	-0.0	-0.0	-0.0	-0.0	-0.0	-3.710289716720581	-0.658317506313324	-508.2999877929688	-0.0	-0.0	-0.0	-0.0	-0.0	-0.0	149777.015625	36291.79296875	-1294.567138671875
0.3855	-0.0	-0.0	-0.0	-0.0	-0.0	-0.0	-3.677307367324829	-0.6498973369598389	-508.9049682617188	-0.0	-0.0	-0.0	-0.0	-0.0	-0.0	149956.609375	36399.90625	-1251.472412109375
0.386	-0.0	-0.0	-0.0	-0.0	-0.0	-0.0	-3.548431396484375	-0.0314560011029243	-509.6370239257813	-0.0	-0.0	-0.0	-0.0	-0.0	-0.0	149754.6875	36454.23828125	-1261.8309326171875
0.3865	-0.0	-0.0	-0.0	-0.0	-0.0	-0.0	-3.4910895824432373	0.0797019749879837	-510.6172180175781	-0.0	-0.0	-0.0	-0.0	-0.0	-0.0	149917.375	36649.0078125	-1169.849609375
0.387	-0.0	-0.0	-0.0	-0.0	-0.0	-0.0	-2.772371292114258	0.0397764556109905	-510.896728515625	-0.0	-0.0	-0.0	-0.0	-0.0	-0.0	149764.53125	36645.39453125	-1010.5389404296876
